<?xml version="1.0" encoding="utf-8"?>
<!-- Generator: Adobe Illustrator 24.1.1, SVG Export Plug-In . SVG Version: 6.00 Build 0)  -->
<svg version="1.1" id="Layer_1" xmlns="http://www.w3.org/2000/svg" xmlns:xlink="http://www.w3.org/1999/xlink" x="0px" y="0px"
	 viewBox="0 0 921 148.5" style="enable-background:new 0 0 921 148.5;" xml:space="preserve">
<style type="text/css">
	.st0{fill:#0047BA;}
</style>
<g>
	<path class="st0" d="M603.4,39l-0.5,0.2V1.4c0-0.9-0.7-1.6-1.6-1.4l-10.5,1.6c-0.7,0-1.1,0.7-1.1,1.4v110.1c0,0.7,0.5,1.4,1.1,1.4
		c9.1,2.1,20.5,3,27.6,3c30.1,0,34.2-14.4,34.2-30.1v-29c0-16.6-8-25.1-23.5-25.1C617.9,33.3,608.6,36.3,603.4,39z M639.2,58v29.9
		c0,11.2-3.4,18-19.8,18c-5.5,0-10.9-0.5-16.2-1.1H603V51.3h0.2c4.8-2.3,14.8-6.2,22.6-6.2C635,45,639.2,49.1,639.2,58z"/>
</g>
<g>
	<path class="st0" d="M670.2,34.9h-10c-0.9,0-1.6,0.9-1.4,1.8l25.3,78c0.2,0.7,0.7,0.9,1.4,0.9h3c0.9,0,1.6,0.9,1.4,1.8l-10,29.2
		c-0.2,0.9,0.5,1.8,1.4,1.8h9.3c0.7,0,1.1-0.5,1.4-0.9l11.2-31.7l26.2-79.1c0.2-0.9-0.5-1.8-1.4-1.8h-10c-0.7,0-1.1,0.5-1.4,0.9
		l-21.2,65.9c-0.5,1.4-2.3,1.4-2.7,0l-20.8-65.9C671.3,35.4,670.8,34.9,670.2,34.9z"/>
</g>
<g>
	<path class="st0" d="M795.1,63.4v24.4c0,20.3,10,29.6,31.9,29.6c9.3,0,19.6-1.6,27.1-4.1c0.7-0.2,1.1-0.9,0.9-1.6l-1.4-7.8
		c-0.2-0.9-0.9-1.4-1.8-1.1c-8.9,2.3-16.9,3.4-23.9,3.4c-16.9,0-19.8-5.9-19.8-18.5V82c0-0.9,0.7-1.4,1.4-1.4h45.6
		c0.9,0,1.4-0.7,1.4-1.4V64.1c0-20.5-9.8-30.3-30.3-30.3C805.8,33.3,795.1,43.4,795.1,63.4z M808.3,62.5c0-12.5,5.7-18,18.2-18
		c12.3,0,17.3,5.2,17.3,18v5.7c0,0.9-0.7,1.4-1.4,1.4h-32.8c-0.9,0-1.4-0.7-1.4-1.4v-5.7C808.2,62.5,808.3,62.5,808.3,62.5z"/>
</g>
<g>
	<path class="st0" d="M896.1,69.6c-13.7-3.4-14.1-5-14.1-14.4c0-7.8,2.1-10.5,14.1-10.5c5.7,0,13.9,0.7,20.8,2.1
		c0.9,0.2,1.6-0.5,1.6-1.4l0.7-8c0-0.7-0.5-1.4-1.1-1.6c-6.4-1.6-14.1-2.5-21.4-2.5c-20.3,0-27.8,5.9-27.8,21.7
		c0,16.6,1.8,20.8,21.9,25.8c16.2,3.9,17.3,4.8,17.3,14.1c0,8.7-2.1,11.4-15.5,11.4c-6.4,0-14.6-1.1-21.4-2.7
		c-0.9-0.2-1.6,0.2-1.8,1.1l-1.4,7.5c-0.2,0.7,0.2,1.4,0.9,1.6c6.6,2.3,16.6,3.9,24.4,3.9c23.5,0,27.8-7.8,27.8-23.3
		C921.2,77.1,918,75.1,896.1,69.6z"/>
</g>
<g>
	<g>
		<path class="st0" d="M278.4,115l-14.6-78.7c-0.2-0.9,0.5-1.8,1.4-1.8h16.2c0.7,0,1.4,0.5,1.4,1.1l8.7,47.4
			c0.2,1.6,2.3,1.6,2.7,0.2l14.1-47.7c0.2-0.7,0.7-1.1,1.4-1.1h19.2c0.7,0,1.1,0.5,1.4,1.1l14.1,47.7c0.5,1.4,2.5,1.4,2.7-0.2
			l8.7-47.4c0.2-0.7,0.7-1.1,1.4-1.1h16.2c0.9,0,1.6,0.9,1.4,1.8L360.1,115c-0.2,0.7-0.7,1.1-1.4,1.1h-21.2c-0.7,0-1.1-0.5-1.4-1.1
			l-15.5-52.9c-0.5-1.4-2.3-1.4-2.7,0L302.4,115c-0.2,0.7-0.7,1.1-1.4,1.1h-21.2C279.1,116.1,278.6,115.7,278.4,115z"/>
	</g>
</g>
<g>
	<path class="st0" d="M254.9,101.1c-7.3,0-9.6-3.2-9.6-12.3V29.7V6.4c0-0.9-0.7-1.6-1.6-1.4l-17.6,2.5c-0.7,0-1.1,0.7-1.1,1.4v0.7
		v20.1V91c0,18.5,11.2,26.7,26.2,26.7c1.6,0,6.8-0.2,9.8-0.5c0.7,0,1.4-0.7,1.4-1.4v-13c0-0.9-0.7-1.4-1.6-1.4
		C258.8,101.1,256.1,101.1,254.9,101.1z"/>
</g>
<g>
	<g>
		<path class="st0" d="M502.3,52.3c-7.3,3.2-13.2,6.6-19.8,10.9c-0.5,0.2-0.7,0.7-0.7,1.1v50.4c0,0.9-0.7,1.4-1.4,1.4h-17.6
			c-0.9,0-1.4-0.7-1.4-1.4V38.8c0-0.7,0.5-1.4,1.1-1.4l14.6-2.5c0.9-0.2,1.6,0.5,1.6,1.1l0.7,5.2c0.2,1.1,1.4,1.6,2.3,0.9
			c4.6-3,11.9-6.8,17.8-8.9c0.9-0.2,1.8,0.2,1.8,1.1l1.6,16C503.2,51.3,502.8,51.8,502.3,52.3z"/>
	</g>
</g>
<g>
	<path class="st0" d="M774.1,106.3c-8.2,0-8.7-3.6-8.7-9.3V47.5c0-0.9,0.7-1.4,1.4-1.4H786c0.7,0,1.4-0.5,1.4-1.4l0.9-8
		c0-0.9-0.7-1.6-1.4-1.6h-20.1c-0.9,0-1.4-0.7-1.4-1.4V14.9c0-0.9-0.7-1.6-1.6-1.4l-10.5,1.6c-0.7,0-1.1,0.7-1.1,1.4v17.3
		c0,0.9-0.7,1.4-1.4,1.4h-11.4c-0.9,0-1.4,0.7-1.4,1.4v8c0,0.9,0.7,1.4,1.4,1.4h11.4c0.9,0,1.4,0.7,1.4,1.4V99
		c0,13,5.7,18.2,19.8,18.2c3.2,0,6.4-0.2,9.6-0.9c0.7-0.2,1.1-0.7,1.1-1.4v-8c0-0.9-0.9-1.6-1.6-1.4
		C778.5,106.1,776.2,106.3,774.1,106.3z"/>
</g>
<g>
	<path class="st0" d="M561.4,35.4c-4.3-1.8-9.8-3-16.9-3c-8,0-14.1,1.4-18.9,3.6c-11.2,5.5-14.8,16.2-14.8,28v21.7
		c0,19.2,8.4,31,32.8,31.5c1.8,0,3.6,0,5.7,0c6.6,0,13.5-0.7,19.8-1.6c0.7-0.2,1.4-0.9,1.1-1.6v-0.7l-1.6-11.2l0,0
		c-6.2,0.7-11.6,0.9-17.8,0.9l0,0c-15,0-19.6-4.3-19.6-13.5v-2.7l0,0V83l0,0h44c0.9,0,1.4-0.7,1.4-1.4v-6.2v-10
		C576.4,52.3,573.3,40.6,561.4,35.4z M558.4,67.8c0,0.9-0.7,1.4-1.4,1.4h-26l0,0v-7.1c0-7.8,3.4-13,13.5-13c1.1,0,2.3,0,3.4,0.2
		c7.5,1.1,10.5,6.2,10.5,12.8V67.8z"/>
</g>
<path class="st0" d="M61.6,130c0.2,0,0.2,0,0.5,0c0.9,0,1.6-0.7,1.6-1.6c0-0.7-0.5-1.6-1.4-1.6h-0.5l-1.1-0.2
	c-18.5-3.6-32.2-20.1-32.2-39.4c0-8.2,2.5-16,6.8-22.3c0.7-0.9,1.8-1.6,3-0.5L67.5,94c0.2,0.2,0.7,0.5,1.1,0.5
	c0.5,0,0.9-0.2,1.1-0.5l29.4-29.4c1.1-1.1,2.1-0.9,2.7,0.2c4.3,6.4,6.8,14.1,6.8,22.3c0,10.3-3.9,19.6-10.3,26.7
	c-0.2,0.2-0.5,0.5-0.7,0.7c0,0.2-0.2,0.5-0.2,0.7c0,0.9,0.7,1.6,1.6,1.6h0.2c0.2,0,0.5-0.2,0.7-0.2c39-16.4,37.2-55.2,37.2-55.2
	c0-22.1-10.5-42-26.7-54.5c-0.7-0.5-1.8-0.5-2.3,0.2L69.8,45.9c-0.7,0.7-1.8,0.7-2.5,0L28.7,7.1c-0.7-0.7-1.6-0.7-2.3-0.2
	C10.5,19.4,0,39,0,61.4l0,0C0,97,26.9,126.4,61.6,130"/>
<g>
	<path class="st0" d="M172.6,32.9c-7.1,0-14.6,0.5-21.7,1.6c-0.7,0.2-1.4,0.9-1.1,1.6l1.6,12.3c0.2,0.7,0.7,1.4,1.6,1.4
		c6.6-0.7,10.9-0.9,17.6-0.9c15,0,19.6,4.3,19.6,13.5v5.5c0,0.9-0.7,1.4-1.4,1.4h-18.9c-16.6,0-26.5,8.4-26.5,23.7
		c0,14.1,10.9,24.2,27.4,24.2c10.3,0,14.4-1.6,17.8-4.8c0.9-0.9,2.5-0.2,2.5,0.9v1.1c0,0.9,0.7,1.4,1.4,1.4h16.6
		c0.9,0,1.4-0.7,1.4-1.4V63C210.7,42.7,196.6,32.9,172.6,32.9z M190.4,85.8c0,10.3-6.8,17.1-17.8,17.1c-8.4,0-12.8-3.2-12.8-9.8
		c0-7.3,4.6-10.3,12.8-10.3h16.2c0.9,0,1.4,0.7,1.4,1.4v1.6C190.2,85.8,190.4,85.8,190.4,85.8z"/>
</g>
<g>
	<path class="st0" d="M408.8,32.9c-7.1,0-14.6,0.5-21.7,1.6c-0.7,0.2-1.4,0.9-1.1,1.6l1.6,12.3c0.2,0.7,0.7,1.4,1.6,1.4
		c6.6-0.7,10.9-0.9,17.6-0.9c15,0,19.6,4.3,19.6,13.5v5.5c0,0.9-0.7,1.4-1.4,1.4h-18.9c-16.6,0-26.5,8.4-26.5,23.7
		c0,14.1,10.9,24.2,27.4,24.2c10.3,0,14.4-1.6,17.8-4.8c0.9-0.9,2.5-0.2,2.5,0.9v1.1c0,0.9,0.7,1.4,1.4,1.4h16.6
		c0.9,0,1.4-0.7,1.4-1.4V63C447.2,42.7,432.8,32.9,408.8,32.9z M426.6,85.8c0,10.3-6.8,17.1-17.8,17.1c-8.4,0-12.8-3.2-12.8-9.8
		c0-7.3,4.6-10.3,12.8-10.3H425c0.9,0,1.4,0.7,1.4,1.4v1.6L426.6,85.8z"/>
</g>
</svg>
