<svg id="Lag_1" data-name="Lag 1" xmlns="http://www.w3.org/2000/svg" viewBox="0 0 731.14 195.38"><defs><style>.cls-1,.cls-2,.cls-3{fill:#007acc;}.cls-2,.cls-3{stroke:#007acc;stroke-miterlimit:10;}.cls-2{stroke-width:10px;}.cls-3{stroke-width:4px;}.cls-4{fill:none;}.cls-5{fill:#fff;}</style></defs><title>PCfejl logo i med pil tyk fejl font tilpasset kasse rettet E anden baggrundt BLÅ</title><rect class="cls-1" width="195.38" height="195.38"/><path class="cls-2" d="M350.43,133.37q-16.14-17-16.14-51.2T350.43,31q16.14-17,48-17,25.74,0,41.21,12.77t15.47,37.18H436.51q0-16.9-10.09-25.65t-27.95-8.74q-23.25,0-34.2,12.3t-11.15,40v.39q0,27.85,10.95,40.25t34.4,12.39q18.24,0,28.53-8.64t10.28-25.37h17.87q0,24.6-15.37,37.09t-41.31,12.48Q366.56,150.37,350.43,133.37Z"/><path class="cls-3" d="M493.33,60.27H477.19V45h16.14V27.36q0-10.89,5.45-18.13T517.22,2a51.25,51.25,0,0,1,8.49.73,43.54,43.54,0,0,1,7.23,1.79V17.3H522q-10.26,0-10.27,10.06V45h21.17v15.3H511.77v95H493.33Z"/><path class="cls-3" d="M628,147.84c-8.87,6.91-19.68,9.9-33.65,9.9q-26.62,0-39.62-14t-13-43.6q0-29.55,13-43.6t39.62-14q23.89,0,35.74,12.68t11.84,40.77v9.22H560.82q1,19.08,9.12,28.19t24.42,9.12c8.81,0,17.94-3.35,23.39-7.41m4.91-45.2q0-32.07-28.3-32.07-15.72,0-23.58,7.54t-9.54,24.53Z"/><path class="cls-3" d="M645.09,190.86v-12h9.22q9.86,0,9.85-10.06V45h18.45V168q0,10.89-5.35,18.13t-17.71,7.23A43.08,43.08,0,0,1,645.09,190.86ZM664.16,3.68h18.45V24.22H664.16Z"/><path class="cls-3" d="M710.69,3.68h18.45V155.23H710.69Z"/><path class="cls-4" d="M272,38.74H229.53V85.39H272q10.15,0,16.15-6.35t6-17.25q0-11.07-5.63-17.06T272,38.74Z"/><path class="cls-2" d="M306.82,27.21q-10.57-11-30.36-10.95H212.29V147.12l18.25-18.25V97.54h45.92q18.82,0,29.88-11.24t11-29.88Q317.38,38.17,306.82,27.21ZM292.6,74.86q-6.35,6.74-17.1,6.73h-45V32.21h45q11.52,0,17.48,6.34t6,18.06Q298.94,68.15,292.6,74.86Z"/><polygon class="cls-5" points="35.76 122.64 132.61 11.53 132.73 158.93 102.99 128.62 82.32 183.85 57.42 174.53 78.09 119.3 35.76 122.64"/></svg>